<svg xmlns="http://www.w3.org/2000/svg" width="70" height="23" viewBox="0 0 70 23"><g><g><g><path fill="#f5a623" d="M36.948 23.995s1.555-10.742 10.218-13.85c8.664-3.109 10.345-3.848 10.345-3.848s-3.745 1.001-8.507 2.197c-4.789 1.202-.783-1.078-.783-1.078l6.576-3.15s-3.34 1.007-11.117 4.406C35.904 12.071 29.85 19.85 29.85 19.85s7.036-6.449 7.558-6.49c.522-.042 2.015 1.338 2.015 1.338s-2.736 7.059-2.475 9.297"/></g><g><path fill="#fff" d="M50.093 7.382c.14.331-.42.88-1.25 1.226-.831.345-1.618.356-1.758.024-.067-.159-.288-.587 1.25-1.227.83-.345 1.618-.356 1.758-.023"/></g><g><path fill="#f5a623" d="M50.093 7.382c.14.331-.42.88-1.25 1.226-.831.345-1.618.356-1.758.024-.067-.159-.288-.587 1.25-1.227.83-.345 1.618-.356 1.758-.023z"/><path fill="none" stroke="#000" stroke-miterlimit="50" stroke-width=".5" d="M50.093 7.382c.14.331-.42.88-1.25 1.226-.831.345-1.618.356-1.758.024-.067-.159-.288-.587 1.25-1.227.83-.345 1.618-.356 1.758-.023z"/></g><g><path fill="#f5a623" d="M63.13 2.808c-.391 1.12-2.327 1.313-3.45.918-1.056-.371-1.076-1.055-.82-1.772.4-1.116 1.814-2.265 2.94-1.876a2.142 2.142 0 0 1 1.33 2.73"/></g><g><path d="M58.797 2.165l.802.56-.34.805s-.758-.375-.462-1.365"/></g><g><path d="M60.326 2.328l.43-1.04.759-.295.973.417-.235 1.121-.84.387z"/></g><g><path d="M59.583.847l.518.086.088-.57s-.365.214-.606.484"/></g><g><path d="M61.3.001l.194.499.554-.25S61.76-.02 61.3.001"/></g><g><path d="M61.023 3.908l.276-.357.524.248s-.381.116-.8.11L73.2 1.498"/></g><g><path fill="#f8f8f8" d="M58.464 2.628c-.202.095-.403.189-.606.278l-.304.138c-.1.046-.208.077-.315.107l.012-.078c.05.052.097.106.142.164a.006.006 0 0 1-.001.009h-.007a1.815 1.815 0 0 1-.19-.102.042.042 0 0 1-.015-.057.039.039 0 0 1 .017-.016l.009-.004c.1-.052.198-.102.304-.137l.316-.105c.21-.073.422-.14.633-.208.004-.001.007 0 .008.004.001.003 0 .006-.003.007"/></g><g><path fill="#f8f8f8" d="M58.849 3.735l-1.208.627-.444.23c-.143.068-.28.125-.398.174-.237.096-.402.146-.402.146-.003 0-.006 0-.007-.004-.001-.003 0-.006.002-.007 0 0 .142-.097.365-.222.112-.061.242-.133.386-.202l.457-.203 1.244-.55c.003-.001.006 0 .008.003 0 .003 0 .007-.003.008"/></g><g><path fill="#f8f8f8" d="M60.128 4.048c-.172.141-.345.281-.52.418l-.26.208c-.087.07-.184.125-.28.18l-.008-.077c.06.038.12.078.178.124.002.002.003.006 0 .009a.006.006 0 0 1-.005.002 1.892 1.892 0 0 1-.21-.053.041.041 0 0 1-.016-.071l.008-.007c.084-.074.168-.147.261-.207l.282-.179c.185-.122.374-.24.563-.357.003-.001.007 0 .008.002.002.003.001.006-.001.008"/></g><g><path fill="red" d="M3.83 20.019c.878 0 1.324-.422 1.324-1.175v-5.308c0-.396.127-.537.534-.537h1.438c.408 0 .548.14.548.537v5.194c0 2.143-1.324 3.522-3.843 3.522C1.324 22.252 0 20.873 0 18.73v-5.194c0-.396.127-.537.535-.537h1.438c.407 0 .547.14.547.537v5.308c0 .753.433 1.175 1.31 1.175"/></g><g><path fill="red" d="M12.36 15.322s.026.92.28 1.787l.472 1.493H11.52l.47-1.505c.255-.856.242-1.775.242-1.775h.128m3.944 6.739c.382 0 .497-.18.37-.524l-2.94-8.116c-.127-.332-.293-.422-.662-.422h-1.45c-.37 0-.535.077-.662.447l-2.927 8.091c-.127.345-.051.524.344.524h1.336c.636 0 .801-.14.929-.537l.292-.918h2.75l.292.918c.102.396.292.537.954.537h1.374"/></g><g><path fill="#fff" d="M24.757 16.254c.776 0 1.184.37 1.184 1.123v.88c0 .753-.408 1.123-1.184 1.123h-.267v-3.126h.267m-4.237 1.123c0-.753.394-1.123 1.183-1.123h.267v3.126h-.267c-.79 0-1.183-.37-1.183-1.123v-.88m3.97-3.841c0-.396-.14-.537-.547-.537h-1.426c-.407 0-.547.141-.547.537v.548h-.382c-2.38 0-3.64 1.251-3.64 3.395v.69c0 2.13 1.26 3.381 3.64 3.381h.382v.549c0 .408.14.548.547.548h1.426c.407 0 .547-.14.547-.548v-.549h.381c2.367 0 3.64-1.25 3.64-3.382v-.689c0-2.144-1.273-3.395-3.64-3.395h-.381v-.548"/></g><g><path fill="#fff" d="M36.602 13.665l-3.359 8.052c-.165.396-.318.473-.878.473H30.75c-.37 0-.42-.204-.268-.536l.955-2.144-2.698-5.845c-.165-.358-.089-.536.306-.536h1.501c.598 0 .802.025.98.472l1.235 2.833 1.17-2.833c.166-.434.318-.472.89-.472h1.515c.37 0 .42.178.267.536"/></g><g><path fill="#fff" d="M44.236 13.665v1.149c0 .407-.14.548-.547.548h-1.883v6.292c0 .396-.14.536-.547.536H39.82c-.408 0-.535-.14-.535-.536v-6.292H37.39c-.407 0-.535-.14-.535-.548v-1.15c0-.395.128-.535.535-.535h6.299c.407 0 .547.14.547.536"/></g><g><path fill="#fff" d="M48.816 18.412c.598 0 .929.294.929.843 0 .56-.331.855-.929.855h-1.285v-1.698h1.285m2.889-4.747c0-.409-.14-.549-.535-.549h-5.612c-.407 0-.547.14-.547.549v8.014c0 .383.153.51.534.51h3.805c1.795 0 2.965-1.122 2.965-2.922 0-1.825-1.17-2.935-2.965-2.935h-1.82v-1.136h3.64c.395 0 .535-.128.535-.536v-.995"/></g><g><path fill="#fff" d="M56.87 15.17c.878 0 1.387.422 1.387 1.226v2.527c0 .804-.51 1.225-1.387 1.225-.891 0-1.4-.421-1.4-1.225v-2.527c0-.804.509-1.226 1.4-1.226m0-2.232c-2.52 0-3.92 1.365-3.92 3.573v2.297c0 2.208 1.4 3.573 3.92 3.573 2.507 0 3.906-1.365 3.906-3.573V16.51c0-2.208-1.4-3.573-3.906-3.573"/></g><g><path fill="#fff" d="M69.415 13.665v7.989c0 .396-.14.536-.547.536H67.43c-.407 0-.534-.14-.534-.536v-6.292h-1.527v1.2c0 3.713-1.145 4.964-2.66 5.717-.356.191-.534.102-.725-.255l-.726-1.302c-.19-.357-.101-.536.255-.74.764-.447 1.374-1.008 1.374-3.408v-2.91c0-.395.14-.535.548-.535h5.433c.408 0 .547.14.547.536"/></g></g></g></svg>